HIERARCHY
ROOT Hips
{
  OFFSET 0 0 0
  CHANNELS 6 Xposition Yposition Zposition Zrotation Yrotation Xrotation
  JOINT LeftThigh
  {
    OFFSET 8.409438 0 -5.917753
    CHANNELS 3 Zrotation Yrotation Xrotation
    JOINT LeftLeg
    {
      OFFSET 0 0 -42.358652
      CHANNELS 3 Zrotation Yrotation Xrotation
      JOINT LeftFoot
      {
        OFFSET 0 0 -39.357303
        CHANNELS 3 Zrotation Yrotation Xrotation
      }
    }
  }
  JOINT RightThigh
  {
    OFFSET -8.409438 0 -5.917753
    CHANNELS 3 Zrotation Yrotation Xrotation
    JOINT RightLeg
    {
      OFFSET 0 0 -42.358652
      CHANNELS 3 Zrotation Yrotation Xrotation
      JOINT RightFoot
      {
        OFFSET 0 0 -39.357303
        CHANNELS 3 Zrotation Yrotation Xrotation
      }
    }
  }
  JOINT SpineLow
  {
    OFFSET 0 0 4.719101
    CHANNELS 3 Zrotation Yrotation Xrotation
    JOINT SpineMid
    {
      OFFSET 0 0 12.899191
      CHANNELS 3 Zrotation Yrotation Xrotation
      JOINT Chest
      {
        OFFSET 0 0 12.899191
        CHANNELS 3 Zrotation Yrotation Xrotation
        JOINT LeftShoulder
        {
          OFFSET 7.550562 1.41573 9.438202
          CHANNELS 3 Zrotation Yrotation Xrotation
          JOINT LeftArm
          {
            OFFSET 9.155056 0 4.247191
            CHANNELS 3 Zrotation Yrotation Xrotation
            JOINT LeftForearm
            {
              OFFSET 0 0 25.771955
              CHANNELS 3 Zrotation Yrotation Xrotation
              JOINT LeftHand
              {
                OFFSET 0 0 25.197169
                CHANNELS 3 Zrotation Yrotation Xrotation
              }
            }
          }
        }
        JOINT RightShoulder
        {
          OFFSET -7.550562 1.41573 9.438202
          CHANNELS 3 Zrotation Yrotation Xrotation
          JOINT RightArm
          {
            OFFSET -9.155056 0 4.247191
            CHANNELS 3 Zrotation Yrotation Xrotation
            JOINT RightForearm
            {
              OFFSET 0 0 -25.771955
              CHANNELS 3 Zrotation Yrotation Xrotation
              JOINT RightHand
              {
                OFFSET 0 0 -25.197169
                CHANNELS 3 Zrotation Yrotation Xrotation
              }
            }
          }
        }
        JOINT Neck
        {
          OFFSET 0 0 15.101124
          CHANNELS 3 Zrotation Yrotation Xrotation
          JOINT Head
          {
            OFFSET 0 0 11.325843
            CHANNELS 3 Zrotation Yrotation Xrotation
            End Site
            {
              OFFSET 0 0 14.157303
            }
          }
        }
      }
    }
  }
}
MOTION
Frames: 11
Frame Time: 0.0
0.0  89.887642  0.0  1.839016  14.490839  -91.154955  3.408042  -12.199964  -7.823399  -14.13782  2.355789  17.800162  -5.86925  -2.87222  -0.981793  -19.606127  11.361644  -8.444311  -13.82517  7.360958  13.181364  0.14748  1.06453  -2.039105  -1.395198  0.325933  -0.149239  -3.815837  0.881953  -0.426596  -3.815837  0.881953  -0.426596  -1.388391  17.276822  19.426674  143.955965  41.884249  -162.156122  -17.792983  3.173917  36.478803  80.338636  -14.201622  9.521719  -10.712411  -11.561475  29.879359  86.354775  38.779009  35.017712  6.087259  12.853661  -31.567431  85.493047  14.440282  -21.928943  -13.152501  1.185476  3.44907  -9.871083  0.815341  2.613668  
0.0  89.887642  0.0  1.833119  15.022375  -91.052122  2.87845  -12.131599  -7.819318  -14.184788  2.109676  17.498305  -5.802736  -2.783301  -0.923977  -20.137964  11.428799  -8.576089  -15.029333  7.466065  12.962219  1.014524  1.156512  -1.967819  -1.412325  0.33057  -0.148422  -3.862679  0.894556  -0.424861  -3.862679  0.894556  -0.424861  -1.480283  17.215335  19.32668  143.578864  41.865674  -162.255528  -17.512851  2.889556  36.79312  80.193728  -14.006709  9.56861  -10.824114  -11.43921  29.699795  85.523474  38.401602  34.434041  6.015625  13.3645  -31.535641  85.547093  14.788445  -21.744742  -13.452256  1.109713  3.345754  -10.095307  0.759084  2.535129  
0.0  89.887642  0.0  1.835925  15.533873  -90.997621  2.422396  -12.077197  -7.775293  -14.186649  1.964281  17.305808  -5.83442  -2.820354  -0.928244  -20.101324  11.524484  -8.549214  -15.430502  7.51741  13.158757  1.015573  1.147832  -2.035904  -1.438703  0.339162  -0.142575  -3.934768  0.918205  -0.409751  -3.934767  0.918205  -0.409751  -1.471615  17.167297  19.270798  143.274639  41.897675  -162.343862  -17.416237  2.728021  37.047922  80.16907  -13.900865  9.678852  -10.902043  -11.327731  29.48419  84.884753  37.965624  33.981593  6.040321  13.754234  -31.491518  85.332444  15.080371  -21.554706  -13.725485  1.020231  3.261612  -10.299632  0.69234  2.470543  
0.0  89.887642  0.0  1.845745  16.123731  -90.863771  1.949834  -12.076597  -7.899347  -14.273198  1.888611  17.124995  -5.755521  -2.743922  -0.869282  -20.476831  11.583178  -8.844764  -16.794763  7.699893  13.193992  1.931544  1.291461  -1.909111  -1.456767  0.344502  -0.138594  -3.984131  0.932918  -0.399446  -3.984131  0.932918  -0.399446  -1.650887  17.138971  19.142425  142.920935  41.916249  -162.479237  -17.52997  2.547191  37.291434  80.110631  -13.802219  9.803404  -11.014552  -11.236747  29.224815  83.843148  37.810832  33.196209  6.248089  13.890365  -31.221595  85.152997  15.357064  -21.497608  -14.077418  0.932174  3.143957  -10.562955  0.627104  2.380893  
0.0  89.887642  0.0  1.868489  16.69181  -90.779435  1.597747  -12.10642  -8.032588  -14.302213  1.968739  17.125615  -5.809292  -2.790906  -0.89228  -20.429384  11.670297  -9.028771  -17.03871  7.797719  13.727809  1.871835  1.368417  -1.964669  -1.490312  0.358828  -0.13733  -4.075913  0.971929  -0.397347  -4.075913  0.971929  -0.397347  -1.674104  17.113866  19.10054  142.581838  41.984116  -162.647715  -17.785263  2.471453  37.537479  80.087325  -13.723151  9.831114  -11.090447  -11.177695  29.011936  83.441939  37.544884  32.952192  6.078825  13.750725  -31.070573  84.974844  15.48519  -21.355778  -14.371705  0.834428  3.083614  -10.783121  0.553665  2.33383  
0.0  89.887642  0.0  1.882839  17.336366  -90.625481  1.261519  -12.231176  -8.378415  -14.428938  2.201536  17.208093  -5.805886  -2.769987  -0.888067  -20.719385  11.740674  -9.499941  -17.441406  8.002257  14.409456  2.206697  1.507484  -1.966638  -1.527435  0.370948  -0.140728  -4.177532  1.004594  -0.407942  -4.177532  1.004594  -0.407942  -1.768489  17.083223  19.043705  142.403385  42.032228  -162.705369  -17.986039  2.416017  37.83824  80.040144  -13.615668  9.69878  -11.28726  -11.150288  28.736918  83.210638  37.390171  32.870263  5.393535  13.477471  -30.870455  84.695624  15.294618  -20.832979  -14.696657  0.733397  3.014657  -11.026276  0.47787  2.280169  
0.0  89.887642  0.0  1.88552  17.932638  -90.5274  1.063519  -12.445926  -8.792111  -14.479093  2.636689  17.52897  -5.858701  -2.81693  -0.926296  -20.707468  11.840607  -9.908305  -17.717558  8.216832  15.381933  2.125476  1.617114  -2.078446  -1.568115  0.38659  -0.13824  -4.288811  1.04723  -0.402773  -4.28881  1.04723  -0.402773  -1.786467  17.04698  19.043718  142.380252  42.18939  -162.630353  -18.299812  2.45588  38.022766  80.087164  -13.536061  9.533534  -11.266  -11.149697  28.572155  83.033872  37.342835  32.869168  5.251788  13.365931  -30.628494  84.82533  15.289359  -20.398095  -14.992128  0.619506  2.970993  -11.247312  0.392013  2.245029  
0.0  89.887642  0.0  1.831049  18.487726  -90.383398  0.983362  -12.830207  -9.422769  -14.482333  3.283726  18.007691  -5.872806  -2.849642  -0.95273  -20.611978  11.919814  -10.499121  -18.049038  8.52969  16.622825  1.884742  1.758124  -2.207428  -1.598553  0.391939  -0.147439  -4.372203  1.061039  -0.428741  -4.372203  1.061039  -0.428741  -1.833921  17.018378  19.083555  142.534065  42.327146  -162.448619  -18.288664  2.470161  38.43159  79.9804  -13.272103  9.113831  -11.371521  -11.136996  28.382532  83.025621  37.248726  33.037036  4.885581  13.466843  -30.36357  85.086295  15.371719  -19.924871  -15.299191  0.514397  2.943063  -11.477109  0.312336  2.221817  
0.0  89.887642  0.0  1.728599  18.92806  -90.236249  1.093312  -13.380266  -10.256205  -14.411248  4.19994  18.773895  -5.965277  -2.925571  -1.007767  -20.377471  11.932145  -11.366999  -18.15511  9.02722  18.211526  1.798785  1.876888  -2.237036  -1.599305  0.394464  -0.155898  -4.374412  1.067373  -0.452032  -4.374412  1.067373  -0.452032  -1.932236  16.961  19.184617  142.781534  42.482063  -162.133293  -18.569913  2.44559  38.661557  80.06324  -13.143199  8.816714  -11.370715  -11.13514  28.270539  82.838601  37.278484  33.101892  4.888141  13.707269  -30.192386  85.116941  15.442483  -19.413571  -15.675075  0.379906  2.913894  -11.758392  0.210333  2.196875  
0.0  89.887642  0.0  1.587259  19.339838  -89.971459  1.271279  -14.058649  -11.412348  -14.232743  5.334003  19.844673  -6.121594  -2.979969  -1.218902  -20.379177  11.375771  -12.342589  -17.666845  9.800043  19.483336  1.653616  2.048413  -2.038087  -1.580803  0.391969  -0.179534  -4.32419  1.059143  -0.516152  -4.32419  1.059143  -0.516152  -2.125311  16.866069  19.281733  143.132894  42.580926  -161.758037  -18.683522  2.4692  39.228289  80.064312  -12.776319  8.203305  -11.556887  -11.152989  28.110111  82.785913  37.296611  33.327524  4.656684  13.884326  -30.149459  84.956133  15.534558  -18.983809  -16.099192  0.225583  2.876983  -12.075759  0.093448  2.165462  
0.0  89.887642  0.0  1.341025  19.539044  -89.567372  1.564064  -14.881144  -12.890494  -13.900536  6.637892  21.254237  -6.041463  -3.051505  -1.383898  -19.713974  10.70563  -13.00335  -17.136286  10.265981  20.304915  1.220984  2.309126  -1.627939  -1.521124  0.373301  -0.225626  -4.161578  1.00572  -0.639964  -4.161578  1.00572  -0.639964  -2.300208  16.739062  19.370246  143.487466  42.648946  -161.343876  -19.22829  2.505454  39.729405  80.180524  -12.530969  7.748143  -11.67869  -11.125542  28.0064  82.615158  37.380911  33.427004  4.435117  13.946662  -30.351422  84.725168  15.606661  -18.695574  -16.586994  0.04218  2.814738  -12.440754  -0.044833  2.114047  
